<svg version="1.2" xmlns="http://www.w3.org/2000/svg" viewBox="0 0 1380 752" width="1380" height="752">
	<style>
		.s0 { fill: #2d8a4e } 
	</style>
	<g id="Layer 1">
		<path id="Path 0" fill-rule="evenodd" class="s0" d="m693.75 45.17c6.19-0.09 17.89 0.32 26 0.92 8.11 0.6 22.63 2.42 32.25 4.04 9.63 1.62 21.77 4.04 27 5.36 5.23 1.32 14.23 3.95 20 5.84 5.77 1.89 15.9 5.56 22.5 8.16 6.6 2.6 16.5 7.02 22 9.83 5.5 2.8 14.27 7.54 19.5 10.53 5.23 2.98 14.23 8.66 20 12.6 5.77 3.95 14.54 10.3 19.47 14.11 4.94 3.82 13.94 11.49 20 17.05 6.07 5.56 12.39 11.64 14.04 13.5 1.66 1.86 6.4 7.21 10.54 11.89 4.13 4.68 10.91 13 15.06 18.5 4.14 5.5 9.81 13.37 12.59 17.5 2.77 4.12 8.33 13.35 12.34 20.5 4.02 7.15 9.19 17.05 11.5 22 2.31 4.95 6.23 14.18 8.71 20.5 2.49 6.32 5.9 16 7.58 21.5 1.68 5.5 4.17 14.5 5.54 20 1.37 5.5 3.4 15.18 4.51 21.5 1.11 6.32 2.57 16 3.24 21.5 0.68 5.5 1.24 20.35 1.27 33 0.02 12.65-0.53 27.95-1.23 34-0.69 6.05-2.14 15.95-3.22 22-1.08 6.05-3.1 15.73-4.5 21.5-1.39 5.77-3.92 15-5.63 20.5-1.71 5.5-4.58 13.82-6.39 18.5-1.81 4.68-5.26 13-7.67 18.5-2.41 5.5-8.14 16.75-12.74 25-4.59 8.25-12.2 20.4-16.9 27-4.7 6.6-12.89 17.17-18.19 23.5-5.31 6.33-15.67 17.33-23.03 24.45-7.37 7.12-18.56 17.03-24.89 22.02-6.33 4.99-16.67 12.48-23 16.63-6.33 4.16-14.65 9.39-18.5 11.62-3.85 2.22-12.4 6.74-19 10.04-6.6 3.3-18.3 8.49-26 11.53-7.7 3.05-20.08 7.36-27.5 9.58-7.42 2.22-16.65 4.72-20.5 5.54-3.85 0.82-11.95 2.4-18 3.5-6.05 1.11-15.5 2.58-21 3.28-5.9 0.75-20.25 1.24-35 1.2-19.7-0.06-28.18-0.52-40-2.19-8.25-1.15-21.75-3.51-30-5.24-8.25-1.72-20.62-4.87-27.5-6.99-6.87-2.11-16.55-5.4-21.5-7.3-4.95-1.9-14.4-5.88-21-8.84-6.6-2.96-17.4-8.47-24-12.25-6.6-3.77-18.03-10.96-25.41-15.97-7.37-5.01-19.07-13.82-26-19.58-6.92-5.76-17.29-15.21-23.04-21-5.75-5.79-14.98-15.97-20.5-22.63-5.53-6.65-13.71-17.45-18.18-24-4.48-6.54-11.41-17.75-15.42-24.9-4-7.15-8.83-16.38-10.73-20.5-1.89-4.13-5.46-12.68-7.91-19-2.46-6.32-5.77-15.55-7.35-20.5-1.59-4.95-4.25-14.63-5.91-21.5-1.66-6.88-3.9-17.68-4.96-24-1.07-6.32-2.49-17.13-3.15-24-0.79-8.18-1-20.8-0.61-36.5 0.33-13.2 1.26-28.5 2.07-34 0.81-5.5 2.62-15.85 4.04-23 1.41-7.15 4.19-18.63 6.18-25.5 1.99-6.88 6.1-18.8 9.12-26.5 3.03-7.7 8.55-20.07 12.26-27.5 3.71-7.43 9.01-17.32 11.76-22 2.75-4.68 8.06-13 11.78-18.5 3.73-5.5 9.05-12.93 11.83-16.5 2.78-3.57 9.17-11.22 14.2-17 5.02-5.78 13.59-14.73 19.03-19.89 5.45-5.16 14.4-13.09 19.9-17.61 5.5-4.52 14.95-11.6 21-15.73 6.05-4.13 14.38-9.52 18.5-11.98 4.13-2.46 11.33-6.5 16-8.97 4.67-2.48 12.77-6.43 18-8.79 5.23-2.36 13.55-5.83 18.5-7.71 4.95-1.88 13.73-4.92 19.5-6.76 5.77-1.84 15.23-4.5 21-5.92 5.77-1.42 15.9-3.49 22.5-4.61 6.6-1.11 16.95-2.48 23-3.03 6.05-0.55 12.8-1.15 15-1.33 2.2-0.19 9.06-0.41 15.25-0.5zm-51.25 17.18c-4.95 0.85-13.95 2.69-20 4.09-6.05 1.4-16.17 4.18-22.5 6.16-6.33 1.99-16 5.4-21.5 7.57-5.5 2.18-16.75 7.28-25 11.34-8.25 4.06-19.5 10.22-25 13.69-5.5 3.46-12.93 8.31-16.5 10.76-3.58 2.46-11.9 8.82-18.5 14.14-6.6 5.32-18.09 15.92-25.54 23.54-7.45 7.62-16.23 17.23-19.52 21.36-3.29 4.13-7.46 9.53-9.26 12-1.8 2.47-5.07 6.97-7.27 10-2.2 3.03-7.89 12.03-12.66 20-4.76 7.97-11.9 21.7-15.87 30.5-3.97 8.8-9.25 22.07-11.73 29.5-2.49 7.43-5.49 17.32-6.67 22-1.17 4.68-2.97 12.55-3.98 17.5-1.01 4.95-2.64 15.3-3.63 23-1.24 9.71-1.79 20.9-1.81 36.5-0.01 12.38 0.56 27.45 1.28 33.5 0.71 6.05 1.96 14.82 2.76 19.5 0.81 4.68 3.23 15.48 5.38 24 2.15 8.52 5.33 19.55 7.06 24.5 1.74 4.95 4.73 12.82 6.65 17.5 1.92 4.68 5.63 13 8.25 18.5 2.61 5.5 8.19 15.74 12.4 22.75 4.21 7.01 10.92 17.31 14.91 22.87 3.99 5.57 10.89 14.46 15.35 19.75 4.45 5.3 13.9 15.26 21 22.13 7.1 6.88 17.18 15.92 22.4 20.1 5.23 4.18 13.1 10.1 17.5 13.15 4.4 3.06 12.95 8.58 19 12.27 6.05 3.7 15.95 9.2 22 12.23 6.05 3.03 15.73 7.44 21.5 9.81 5.77 2.36 14.77 5.69 20 7.4 5.23 1.71 13.33 4.19 18 5.5 4.67 1.32 14.13 3.58 21 5.02 6.88 1.45 17 3.31 22.5 4.15 5.5 0.83 20.58 1.76 33.5 2.07 14.78 0.35 28.51 0.12 37-0.63 7.42-0.66 18.67-2.1 25-3.2 6.33-1.1 15.33-2.89 20-3.97 4.67-1.09 14.35-3.81 21.5-6.06 7.15-2.25 19.08-6.54 26.5-9.54 7.42-3 18.9-8.29 25.5-11.75 6.6-3.46 15.61-8.49 20.02-11.17 4.42-2.68 12.07-7.67 17-11.09 4.94-3.41 12.13-8.72 15.98-11.8 3.85-3.08 11.27-9.3 16.5-13.83 5.23-4.53 14.62-13.85 20.88-20.7 6.26-6.85 14.13-16.06 17.5-20.45 3.36-4.39 6.57-8.7 7.12-9.57 0.55-0.87 3.97-6.05 7.59-11.51 3.62-5.46 9.35-14.88 12.72-20.93 3.37-6.05 8.67-16.85 11.77-24 3.1-7.15 7.18-17.5 9.07-23 1.89-5.5 4.72-14.73 6.28-20.5 1.56-5.77 3.57-13.88 4.47-18 0.89-4.13 2.55-13.57 3.69-21 1.38-9.06 2.24-20.74 2.59-35.5 0.4-16.48 0.12-25.89-1.1-37.5-0.9-8.52-2.32-19.55-3.16-24.5-0.83-4.95-3.05-15.07-4.92-22.5-1.88-7.43-5.83-20.25-8.8-28.5-2.96-8.25-8.46-21.53-12.22-29.5-3.76-7.97-10.92-21.18-15.91-29.34-4.99-8.17-12.83-19.87-17.43-26-4.6-6.14-12.25-15.62-17-21.06-4.75-5.45-13.14-14.18-18.64-19.42-5.5-5.24-15.4-13.83-22.01-19.1-6.6-5.27-17.62-13.25-24.5-17.74-6.87-4.49-17.66-10.88-23.99-14.2-6.33-3.32-16.67-8.26-23-10.98-6.33-2.72-16-6.51-21.5-8.43-5.5-1.92-14.27-4.64-19.5-6.06-5.23-1.42-13.77-3.52-19-4.68-5.23-1.17-15.58-3.03-23-4.14-10.19-1.53-20-2.11-40-2.39-18.03-0.24-30.18 0.08-38 0.99-6.33 0.74-15.55 2.05-20.5 2.9z"/>
		<path id="Path 1" fill-rule="evenodd" class="s0" d="m933.71 490.22c4.35 0.2 6.74 0.82 8 2.07 1.63 1.63 1.81 4.59 2.07 34 0.18 20.18-0.1 33.42-0.75 35.46-0.67 2.11-1.82 3.41-3.28 3.72-1.24 0.26-3.15 0.53-4.25 0.61-1.1 0.08-3.91 0.1-6.25 0.04-2.8-0.08-4.93-0.8-6.25-2.12-1.92-1.92-2-3.35-2.02-35.25-0.01-25.34 0.29-33.64 1.25-34.88 0.7-0.89 2.17-2.14 3.27-2.77 1.1-0.64 4.79-1.03 8.21-0.88zm-74.52 0.04c3.13 0.13 6.28 0.82 7 1.54 0.97 0.96 1.44 7.26 1.81 24.5 0.41 18.87 0.8 23.76 2.13 26.2 0.9 1.65 2.81 3.56 4.25 4.25 1.44 0.69 4.08 1.26 5.87 1.28 2.12 0.01 3.99-0.77 5.38-2.25 1.16-1.26 2.72-3.41 3.44-4.78 0.95-1.79 1.43-8.76 1.67-24.5 0.33-20.67 0.48-22.12 2.42-24 1.49-1.45 3.75-2.1 8.2-2.35 5.04-0.28 6.63 0.03 11.64 3.85l-0.25 25.25c-0.23 23.01-0.43 25.65-2.3 29.75-1.13 2.47-3.46 6.3-5.19 8.5-1.72 2.2-5.08 4.98-7.45 6.18-2.37 1.2-6.56 2.73-9.31 3.4-2.83 0.69-8.26 1.01-12.5 0.74-4.35-0.28-9.39-1.32-12-2.47-2.48-1.1-6.23-3.54-8.34-5.42-2.11-1.89-5.03-5.91-6.5-8.93-2.63-5.44-2.66-5.77-2.93-30-0.23-21.25-0.05-24.81 1.35-26.8 0.89-1.27 2.59-2.73 3.77-3.24 1.18-0.52 4.71-0.83 7.84-0.7zm-59.69-0.91c3.35 0.21 7.77 1.26 10 2.39 2.2 1.11 4.56 2.74 5.25 3.64 1.12 1.45 1.56 1.29 4.25-1.56 2.53-2.68 3.89-3.24 8.75-3.63 5.39-0.43 5.9-0.28 10.38 5.31l-0.63 77-2.52 6c-1.39 3.3-3.86 7.7-5.5 9.78-1.64 2.08-5.23 5.33-7.98 7.22-2.76 1.9-7.91 4.18-11.5 5.09-4.5 1.14-9.11 1.51-15 1.2-6.73-0.36-11.31-1.41-22-5.08-7.42-2.55-16.2-5.1-19.5-5.66-4.07-0.7-7.93-0.71-12-0.03-3.3 0.55-8.25 2.04-11 3.3-2.75 1.26-7.03 3.67-9.5 5.36-2.48 1.68-6.08 4.48-8 6.22-1.92 1.74-3.65 3.03-3.83 2.88-0.17-0.15 0.44-2.76 1.37-5.78 0.93-3.02 2.7-7.3 3.94-9.5 1.24-2.2 4.45-5.85 7.14-8.12 2.68-2.26 6.68-5.03 8.88-6.14 2.2-1.12 6.7-2.81 10-3.77 4.69-1.35 8.3-1.62 16.5-1.2 7.56 0.38 13.02 1.31 19.5 3.34 7.46 2.34 10.83 2.82 30.38 2.89l3.6-3.5c1.97-1.92 4.02-5.08 4.55-7 0.53-1.92 0.96-5.19 0.97-11l-2.75 2.29c-1.51 1.27-4.55 2.94-6.75 3.71-2.2 0.78-6.7 1.42-10 1.42-3.3 0-8.25-0.75-11-1.67-2.75-0.92-7.03-3.42-9.5-5.56-2.48-2.13-5.94-6.54-7.7-9.78-2.06-3.81-3.61-8.57-4.35-13.41-0.85-5.51-0.86-9.36-0.06-14.5 0.59-3.85 2.32-9.48 3.83-12.5 1.51-3.03 5-7.8 7.76-10.62 3.91-3.98 6.46-5.59 11.52-7.25 4.59-1.51 8.26-2.03 12.5-1.78zm-51.5 1.13c4.24 0.33 5.91 0.95 7.29 2.72 1.65 2.11 1.79 5.07 1.71 68.8l-2.75 2.66c-2.53 2.46-3.28 2.64-9.34 2.25-3.91-0.24-7.29-1.02-8.3-1.91-1.54-1.36-1.69-4.73-1.64-36 0.04-20.34 0.45-35.03 1.02-35.79 0.53-0.71 2.21-1.71 3.73-2.22 1.53-0.52 5.25-0.74 8.28-0.51zm41.28 26.52c-1.79 3.47-2.32 6.1-2.31 11.5 0.02 4.87 0.59 8.07 1.88 10.5 1.02 1.92 3.38 4.53 5.25 5.78 2.24 1.5 4.85 2.27 7.65 2.25 3.39-0.02 5.01-0.71 8-3.38 2.54-2.28 4.2-4.93 5.16-8.25 0.91-3.2 1.17-6.81 0.75-10.4-0.36-3.02-1.44-6.8-2.41-8.4-0.96-1.59-2.88-3.74-4.25-4.79-1.38-1.04-4.3-2.12-6.5-2.4-2.74-0.35-5.09 0.05-7.45 1.29-2.14 1.12-4.32 3.5-5.77 6.3zm-154.28-27.68c8.16 0.25 10.34 0.71 15.42 3.24 3.26 1.62 7.95 4.96 10.42 7.44 2.48 2.48 5.77 7.2 7.33 10.5 1.55 3.3 3.29 8.92 3.87 12.5 0.73 4.57 0.72 8.73-0.04 14-0.6 4.12-1.88 9.3-2.84 11.5-0.97 2.2-3.76 6.19-6.21 8.87-2.45 2.68-6.48 5.89-8.95 7.13-2.48 1.25-6.98 2.79-10 3.44-4.02 0.86-7.05 0.89-11.25 0.12-3.16-0.58-7.55-1.96-13.75-5.06l0.25-16.43c0.23-14.88 0.45-16.69 2.34-19.25 1.15-1.55 3.63-3.85 5.5-5.1 2-1.33 4.86-2.25 6.91-2.22 1.92 0.03 4.3 0.83 5.28 1.78 0.98 0.94 1.78 2.39 1.77 3.22-0.01 0.98-1.5 1.76-4.28 2.24-2.35 0.4-5.07 1.53-6.05 2.5-1.1 1.08-1.77 3.2-1.75 5.51 0.02 2.38 0.76 4.48 2.03 5.75 1.41 1.41 3.33 2 6.5 2 3.78 0 4.9-0.48 7-3 1.37-1.65 2.78-4.69 3.12-6.75 0.35-2.06 0.35-5.33 0.02-7.25-0.33-1.92-1.46-4.63-2.49-6-1.04-1.38-3.11-3.4-4.59-4.5-1.92-1.41-4.27-2-8.06-2-3.86 0-6.14 0.58-8.18 2.09-1.55 1.15-3.95 4.07-5.32 6.5-2.41 4.25-2.51 5.16-2.8 24.91-0.25 16.6-0.01 21.36 1.26 25 0.86 2.48 1.56 5.62 1.55 7-0.01 1.37-1.12 5.87-2.47 10-1.36 4.12-3.61 8.74-5 10.25-1.96 2.12-3.46 2.75-6.54 2.75-3.02 0-4.68-0.67-6.79-2.75-1.73-1.71-3.9-6.04-5.75-11.46-2.84-8.36-2.9-8.91-1.51-13.5 1.08-3.58 1.37-9.23 1.16-22.29-0.15-9.63 0.22-21.33 0.83-26 0.63-4.9 2.15-10.72 3.58-13.75 1.36-2.89 4.62-7.55 7.23-10.36 2.61-2.81 6.77-6.28 9.25-7.71 2.47-1.43 6.3-3.17 8.5-3.88 2.44-0.78 7.7-1.16 13.5-0.98zm-80.5 0.15c3.95 0.24 9.07 1.32 11.75 2.48 2.61 1.13 7.24 4.41 10.28 7.3 3.45 3.28 6.31 7.13 7.6 10.25 1.14 2.75 2.38 7.7 2.76 11 0.38 3.3 0.35 7.58-0.06 9.5-0.42 1.92-1.46 4.17-2.33 5-1.31 1.24-5.49 1.5-24.54 1.5-14.64 0-22.96 0.36-22.96 1 0.01 0.55 0.91 2.46 2 4.25 1.1 1.79 3.91 4.2 6.25 5.37 3.38 1.69 5.61 2.04 10.88 1.75 5.54-0.31 7.4-0.91 15.87-6.87l3.68 2.25c2.02 1.24 4.71 3.6 5.97 5.25 1.26 1.65 2.29 3.45 2.29 4 0 0.55-1.22 2.55-2.72 4.45-1.57 1.99-5.26 4.62-8.72 6.21-3.3 1.52-9.15 3.26-13 3.86-5.53 0.86-8.47 0.78-14-0.34-3.85-0.79-8.8-2.35-11-3.47-2.2-1.12-5.8-3.58-8-5.47-2.2-1.88-5.41-6.09-7.13-9.33-1.72-3.25-3.69-8.39-4.39-11.41-0.72-3.15-1.04-8.49-0.74-12.5 0.28-3.85 1.44-9.48 2.57-12.5 1.16-3.1 4.17-7.85 6.88-10.88 2.64-2.96 6.83-6.55 9.31-7.97 2.47-1.42 6.75-3.15 9.5-3.85 2.76-0.69 8.13-1.07 12-0.83zm-16 25.53c-0.83 1.65-1.5 3.45-1.5 4 0 0.62 5.33 1 14 1 8.67 0 14-0.38 14-1 0-0.55-0.67-2.35-1.5-4-0.83-1.65-2.74-3.92-4.25-5.03-1.93-1.43-4.24-2.03-7.75-2-3.19 0.02-6.18 0.76-8.25 2.03-1.79 1.1-3.92 3.35-4.75 5zm160-46.94c3.39 0 5.57 0.54 6.78 1.72 1.47 1.42 1.78 3.39 1.72 20.72l8.25-0.36c8.05-0.35 8.31-0.29 10.6 2.5 2.01 2.45 2.28 3.65 1.87 8.36-0.37 4.28-1.01 5.9-2.85 7.29-1.82 1.38-4.17 1.79-17.87 1.71l0.01 15.75c0.01 8.66 0.24 16.65 0.52 17.75 0.27 1.1 1.73 2.59 3.23 3.31 1.84 0.89 4.38 1.1 7.74 0.64 3.9-0.53 5.38-0.33 6.75 0.93 0.96 0.89 2.25 3.53 2.86 5.87 0.66 2.56 0.76 5.22 0.25 6.69-0.48 1.35-2.44 3.35-4.36 4.46-2.46 1.41-5.87 2.12-11.5 2.4-6.1 0.3-9.07-0.04-12.5-1.42-2.48-1-5.8-2.95-7.39-4.35-1.59-1.39-4.04-4.78-5.46-7.53-2.47-4.8-2.58-5.78-3.15-44.5h-4c-3.05 0-4.63-0.65-6.67-2.75-2.39-2.46-2.6-3.27-2.07-7.75 0.34-2.84 1.38-5.78 2.42-6.8 1-1 3.96-2.12 11.35-3.2l-0.02-7.25c0-3.99 0.44-8.15 0.99-9.25 0.55-1.1 2.46-2.66 4.25-3.46 1.79-0.8 5.5-1.47 8.25-1.48zm47.5-8.05c1.92 0 4.96 0.9 6.75 1.99 1.79 1.1 3.98 3.46 4.87 5.25 1.16 2.34 1.41 4.37 0.88 7.25-0.47 2.62-1.89 5.12-4.11 7.25-3.14 3.01-3.83 3.23-9.36 3-4.8-0.2-6.48-0.74-8.57-2.75-1.88-1.8-2.77-3.89-3.17-7.5-0.44-3.89-0.14-5.65 1.32-7.93 1.04-1.61 3.24-3.74 4.89-4.74 1.65-1 4.58-1.82 6.5-1.82zm187.66-1.82c3.83 0.23 5.84 0.95 7.84 2.81 1.48 1.37 3.32 3.74 4.1 5.25 0.77 1.51 1.4 3.87 1.4 5.25 0 1.37-0.9 4.3-2 6.5q-2 4-5.5 5.5c-1.92 0.82-5.19 1.5-7.25 1.5-2.06-0.01-5.21-0.91-7-2-1.79-1.1-4.15-3.46-5.25-5.25-1.09-1.79-2-4.6-2-6.25 0-1.65 0.85-4.58 1.89-6.5 1.04-1.93 3.4-4.32 5.25-5.31 2.32-1.25 4.96-1.72 8.52-1.5zm-7.8 12.78c0.03 1.39 0.93 3.65 2.01 5.03l1.95 2.5c0.53-11.24 0.36-14.5-0.02-14.5-0.39 0-1.44 1-2.35 2.22-0.9 1.22-1.62 3.36-1.59 4.75zm8.64 8.15c3.49-3.97 4.5-6.25 4.5-7.62 0-1.38-0.45-3.4-1-4.5-0.55-1.1-1.56-2-2.25-2-0.88 0-1.25 2.08-1.25 7.06zm-459.8-23.12c1.26 0 3.2 0.9 4.3 2 1.1 1.1 2 3.13 2 4.5 0 1.38-0.63 3.74-1.4 5.25-0.77 1.51-1.73 4.33-2.12 6.25-0.4 1.93-0.27 4.4 0.27 5.5 0.91 1.85 1.41 1.57 6.62-3.75 4.54-4.63 6.07-5.63 7.88-5.13 1.24 0.35 2.83 1.13 3.54 1.75 0.72 0.62 1.28 2.59 1.25 4.38-0.03 2.25-0.78 3.79-2.44 5-1.32 0.96-3.8 2.54-5.5 3.5-1.71 0.96-3.76 2.76-4.57 4-0.81 1.24-1.77 4.5-2.78 12.25l4.37-4.43c2.41-2.43 5.84-5.02 7.63-5.75 1.79-0.72 5.72-1.32 8.75-1.32 3.02 0 6.66 0.56 8.07 1.25 1.41 0.69 2.82 2.38 3.14 3.75 0.32 1.38 0.29 4.98-0.06 8-0.35 3.03-1.31 6.51-2.14 7.75-1.4 2.09-2.04 2.21-8.76 1.7-5-0.39-8.03-0.15-9.75 0.75-1.38 0.72-3.52 3.33-4.76 5.8-2.1 4.2-2.26 5.77-2.25 23.25 0.01 10.31-0.33 19.49-0.74 20.39-0.41 0.9-1.99 2.25-3.5 3-1.51 0.75-4.78 1.36-7.25 1.36-2.48 0-5.51-0.52-6.75-1.15-1.24-0.63-2.58-1.64-2.98-2.25-0.41-0.6-0.75-13.36-0.75-28.35-0.02-18.61-0.42-28.72-1.27-31.89-0.86-3.22-2.17-5.28-4.25-6.69-1.88-1.29-5.35-2.26-9.32-2.61-4.75-0.42-6.68-1.06-7.77-2.56-0.79-1.1-1.44-2.67-1.43-3.5 0-0.82 0.68-2.51 1.51-3.75 0.89-1.33 2.53-2.25 4.01-2.25 1.37 0 4.3 0.9 6.5 2 2.2 1.1 4.9 2 6 2 1.1 0 2-0.22 2-0.5 0-0.27-0.51-1.51-1.14-2.75-0.62-1.24-3.32-4.61-6-7.5-2.67-2.89-4.86-6.15-4.86-7.25 0-1.1 1.1-3.12 2.45-4.5 1.35-1.37 3.15-2.5 4-2.5 0.85 0 2.67 1.13 4.05 2.5 1.37 1.38 2.95 4.3 3.5 6.5 0.55 2.2 1.96 5.01 3.12 6.25 1.81 1.91 2.26 2.03 3.02 0.75 0.48-0.82 0.59-4.87 0.23-9-0.62-7-0.5-7.65 1.68-9.75 1.29-1.24 3.38-2.25 4.65-2.25zm246.77-266.73c0.56 0.19 3.17 4.59 5.78 9.79 2.72 5.41 5.59 13.07 6.73 17.94 1.08 4.68 2.45 13 3.02 18.5 0.74 7.01 0.73 12.85-0.01 19.5-0.59 5.23-1.75 12.43-2.58 16-0.84 3.58-3.33 10.33-5.53 15-2.21 4.68-6.12 11.43-8.7 15-2.57 3.58-7.37 9.37-10.68 12.87-3.3 3.51-9.38 8.75-13.5 11.65-4.13 2.9-9.16 6.11-14.89 8.98l2.16 3c1.19 1.65 5.94 10.88 10.56 20.5 4.61 9.63 10.08 19.98 12.14 23 2.07 3.03 6.63 8.21 10.14 11.53 3.52 3.32 8.86 7.21 11.89 8.65 3.02 1.44 8.87 3.19 13 3.87 5.78 0.97 8.99 0.99 14 0.11 3.58-0.63 9.2-2.46 12.5-4.07 3.3-1.62 8.92-5.6 12.5-8.85 4.41-4 10.21-11.32 18-22.73 6.33-9.25 13.86-19.22 16.75-22.16 2.89-2.94 7.61-6.86 10.5-8.7 2.89-1.84 7.95-4.37 11.25-5.61 3.97-1.49 8.46-2.3 13.25-2.4 4.03-0.08 7.26-0.58 7.29-1.14 0.03-0.55-1.77-2.69-3.99-4.75-2.23-2.06-5.51-4.53-7.3-5.48-2.34-1.25-5.64-1.74-11.82-1.75-7.68-0.02-9 0.26-12.75 2.73-2.3 1.51-5.08 4.21-6.18 6-1.09 1.79-2 4.6-2.01 6.25-0.01 1.65 0.55 3.54 1.24 4.2 1.01 0.96 0.15 2.39-4.23 7.03-3.03 3.21-10.23 12.77-16 21.26-5.78 8.48-12.75 17.85-15.5 20.82-3.46 3.73-7.32 6.52-12.5 9.02-6.23 3.02-8.85 3.7-15.5 4.04-6.17 0.32-9.6-0.07-15-1.7-4.7-1.42-8.89-3.6-12.75-6.64-3.16-2.49-7.32-6.67-9.23-9.28-1.91-2.61-6.72-11.27-10.69-19.25-3.96-7.97-8.47-16.64-10.02-19.25-1.54-2.61-2.83-4.86-2.85-5-0.02-0.14 2.79-2.02 6.25-4.19 3.46-2.17 10.59-8.24 15.86-13.5 5.26-5.26 11.44-12.37 13.75-15.81 2.3-3.44 4.37-6.14 4.6-6 0.23 0.14 0.92 4.08 1.53 8.75 0.61 4.68 1.8 11.43 2.64 15 0.84 3.58 3.52 10.55 5.95 15.5 2.43 4.95 6.27 11.25 8.54 14 2.27 2.75 6.67 7.16 9.78 9.81 3.1 2.64 9.33 6.69 13.84 9 7.34 3.75 8.37 4.03 9.8 2.69 0.87-0.82 1.58-2.17 1.58-3-0.01-0.82-0.99-2.4-2.18-3.5-1.19-1.1-3.99-4.47-6.22-7.5-2.24-3.02-5.12-8.2-6.42-11.5-1.29-3.3-3.04-9.15-3.87-13-1.02-4.69-1.32-9.3-0.9-14 0.34-3.85 1.62-9.92 2.85-13.5 1.22-3.57 4.74-10.32 7.8-15 3.75-5.7 7.68-10.18 11.97-13.62 3.51-2.81 8.64-6.24 11.39-7.62 2.75-1.38 8.6-3.79 13-5.36 7.56-2.7 8.88-2.86 24-2.82 14.08 0.03 16.96 0.33 24 2.49 4.4 1.35 12.01 4.7 16.91 7.44q8.91 4.99 16.51 12.49c4.47 4.42 9.55 10.79 12.36 15.5 2.63 4.4 6.17 12.28 7.87 17.5 2.52 7.73 3.19 11.74 3.61 21.5 0.4 9.29 0.12 13.81-1.25 20-0.97 4.4-1.96 8.45-2.2 9-0.24 0.55 0.83 2.54 2.37 4.42 1.55 1.88 5.52 4.7 8.82 6.25 4.02 1.9 7.65 2.84 11 2.86 3.5 0.03 5.82-0.57 7.75-1.99 2.36-1.75 2.75-2.74 2.75-7.04 0-3.94-1.08-7.27-5.1-15.75-2.81-5.91-5.76-13.9-6.56-17.75-0.89-4.33-1.2-9.1-0.81-12.5 0.35-3.02 1.68-7.75 2.96-10.5 1.28-2.75 4.52-7.02 7.21-9.5 2.69-2.47 6.67-5.38 8.85-6.45 2.21-1.09 6.81-2.13 10.45-2.37 4.64-0.29 6.87-0.02 7.78 0.96 0.71 0.75 1.16 2.49 1 3.86-0.21 1.84-2.07 3.69-7.04 7-5.14 3.42-7.28 5.59-8.91 9-1.73 3.64-2.02 5.55-1.51 10 0.34 3.03 1.68 7.53 2.97 10 1.28 2.48 4.29 7.88 6.67 12 2.39 4.13 5.19 9.98 6.23 13 1.03 3.03 2.15 7.98 2.47 11 0.38 3.62 0.01 7.73-1.08 12-0.91 3.58-3.1 8.91-4.87 11.85-1.76 2.94-5.46 7.13-8.21 9.3-2.75 2.18-7.48 4.92-10.5 6.09-3.77 1.47-8.48 2.27-15 2.55-8.61 0.37-10.39 0.12-19-2.75-5.23-1.75-11.75-4.53-19.5-9.19l-6.5 6.45c-3.58 3.54-9.42 8.39-13 10.76-3.58 2.38-10.1 6.01-14.5 8.06-4.4 2.06-11.6 4.67-16 5.8-4.4 1.14-12.28 2.5-17.5 3.04-6.15 0.63-12.68 0.63-18.5 0-4.95-0.53-9.23-1.2-9.5-1.48-0.28-0.28-0.05-0.87 0.5-1.3 0.55-0.43 4.32-3.46 8.38-6.73 4.07-3.27 9.93-9.32 13.03-13.45 3.1-4.12 8.06-11.55 11.02-16.5 2.96-4.95 6.84-10.8 8.61-13 1.77-2.2 6.2-7.04 9.84-10.75 3.64-3.71 7.74-9 9.12-11.75 1.37-2.75 2.77-6.91 3.71-13.5l-2.86 5.44c-1.94 3.7-6.01 8.34-12.7 14.5-5.42 4.98-11.76 11.76-14.08 15.06-2.32 3.3-6.65 10.05-9.62 15-2.98 4.95-8.34 12.35-11.93 16.45-3.59 4.1-10.35 10.28-15.02 13.73-4.67 3.46-12.1 7.85-16.5 9.75-4.4 1.9-11.38 4.22-15.5 5.16-4.66 1.06-11.86 1.71-19 1.72-8.59 0.02-13.65-0.53-20-2.15-4.67-1.2-12.76-4.31-17.96-6.92-7.01-3.51-11.5-6.68-17.38-12.24-4.35-4.12-10.11-10.42-12.79-14-2.68-3.57-10.55-17.75-17.5-31.5-6.95-13.75-13.5-25.9-14.55-27-1.9-1.97-1.9-2.04 0.12-5.5 1.13-1.92 2.05-5.07 2.05-7 0-1.92-0.9-4.85-2-6.5-1.1-1.65-3.01-3.55-4.24-4.21-1.24-0.67-4.05-1.22-10.25-1.24l0.76-3.28c0.42-1.8 0.76-6.76 0.74-18.77l6.25 0.02c3.56 0.01 9.26-0.89 13.25-2.1 3.85-1.17 9.7-3.76 12.99-5.77 3.29-2.01 8.29-5.9 11.1-8.65 2.81-2.75 6.87-7.7 9.03-11 2.16-3.3 5.2-9.82 6.75-14.5 2.63-7.9 2.8-9.34 2.38-20.5-0.34-8.96-1-13.45-2.6-17.75-1.18-3.16-2.04-5.88-1.9-6.05 0.14-0.16 4.3-2.05 9.25-4.19 5.54-2.39 10.35-5.26 12.5-7.46 1.92-1.96 4.36-5.37 5.41-7.56 1.05-2.19 2.16-5.92 2.46-8.28 0.31-2.36 1.03-4.13 1.6-3.94zm-65.22-38.23c2.06-0.02 5.1 0.64 6.75 1.46 2.19 1.1 4.82 1.35 9.75 0.94 5.49-0.46 7.4-0.21 10.25 1.35 2.08 1.13 4.45 3.7 5.83 6.31 1.29 2.42 3.09 5.24 4 6.26 0.92 1.02 3.81 2.93 6.42 4.25 2.61 1.31 6.4 3.85 8.41 5.64 2.01 1.79 4.26 4.71 5 6.5 0.74 1.79 1.34 4.26 1.33 5.5 0 1.24-0.45 3.94-1 6-0.54 2.06-2.51 5.44-4.36 7.5-1.86 2.06-5.57 4.95-8.25 6.41-2.69 1.46-9.72 4.04-15.63 5.75-5.91 1.7-12.44 3.94-14.5 4.98-2.06 1.05-4.65 2.91-5.75 4.16-1.1 1.24-4.03 3.54-6.5 5.12-3.34 2.12-5.72 2.86-9.25 2.85-4.24-0.02-5.39 0.51-10.75 4.98-3.3 2.75-6.67 6.35-7.5 8-0.83 1.65-1.5 5.25-1.5 8 0 3.49 0.53 5.49 1.75 6.6 1.27 1.17 2.7 1.42 5.25 0.93 1.92-0.38 3.85-0.99 4.28-1.36 0.44-0.37-0.13-3.03-1.25-5.92-1.5-3.89-1.77-5.77-1.03-7.25 0.55-1.1 2.24-2.29 3.75-2.63 2.17-0.51 3.13-0.14 4.54 1.75 0.99 1.31 1.78 3.28 1.77 4.38-0.02 1.1 0.36 2.68 0.83 3.5 0.48 0.84 1.08 1.06 1.35 0.5 0.28-0.55 1.06-2.8 1.75-5 0.69-2.2 2.21-5.02 3.38-6.27 1.17-1.26 3.03-2.26 4.13-2.23 1.1 0.03 2.8 0.83 3.78 1.78 0.98 0.94 1.78 2.4 1.77 3.22 0 0.83-1.35 3.3-3 5.5-1.65 2.2-3.01 4.34-3.02 4.75-0.02 0.41 0.76 0.74 1.72 0.72 0.96-0.01 3.55-1.37 5.75-3.02 2.2-1.64 4.9-2.97 6-2.94 1.1 0.02 2.8 0.82 3.78 1.77 0.98 0.94 1.79 2.85 1.79 4.22 0 1.38-0.81 3.25-1.79 4.17-0.98 0.91-3.58 1.95-5.78 2.3-2.2 0.36-5.01 0.85-6.25 1.09-1.24 0.24-2.25 1.12-2.25 1.94 0 0.83 1.01 1.72 2.25 1.99 1.24 0.26 3.6 0.48 5.25 0.48 1.65 0 3.85 0.57 4.88 1.26 1.24 0.84 1.88 2.46 1.88 4.77 0 2.29-0.65 3.96-1.88 4.82-1.13 0.8-3.17 1.1-5.13 0.75-1.79-0.31-4.71-1.68-6.5-3.04-1.79-1.36-3.81-2.49-4.5-2.5-0.69-0.02-1.24 0.53-1.23 1.22 0.01 0.69 0.8 3.33 1.75 5.86 1.64 4.38 1.64 4.75-0.02 7.25-1.2 1.81-2.62 2.63-4.5 2.62-1.51-0.02-3.55-0.81-4.53-1.75-1.18-1.14-1.77-3.18-1.75-5.98 0.02-2.34-0.2-4.92-0.47-5.75-0.28-0.82-1.06-1.51-1.75-1.52-0.69-0.01-4.17 1.44-7.75 3.23-4.99 2.49-8.13 3.33-13.5 3.63-6.52 0.36-7.24 0.19-10.43-2.47-1.88-1.58-4.29-4.22-5.34-5.87-1.77-2.76-1.87-2.8-1.28-0.5 0.36 1.38 0.89 4.08 1.18 6 0.35 2.27-0.36 6.33-2.01 11.5-2.15 6.76-3.05 8.3-5.83 9.91-1.81 1.04-5.43 3.41-8.04 5.25-2.61 1.84-4.53 3.57-4.25 3.84 0.27 0.28 1.51-0.15 2.75-0.93 1.24-0.79 5.85-2.64 10.25-4.11 5.7-1.9 9.48-2.57 13.16-2.32 3.81 0.27 5.84 1.01 7.79 2.86 1.45 1.38 3.07 4.19 3.6 6.25 0.52 2.06 0.65 6.34 0.27 9.5-0.37 3.16-1.68 8.9-2.91 12.75-1.22 3.85-2.16 7.14-2.07 7.32 0.09 0.17 1.06 0.08 2.16-0.21 1.1-0.29 3.8-1.91 6-3.6 2.2-1.69 5.12-3.05 6.5-3.02 1.37 0.03 3.3 0.84 4.28 1.79 0.98 0.94 1.78 2.85 1.77 4.22 0 1.38-0.81 3.42-1.78 4.54-0.97 1.12-3.57 2.33-5.77 2.68-2.2 0.36-4.56 1.35-5.25 2.22-1.04 1.29-0.91 1.73 0.75 2.56 1.1 0.55 3.12 1 4.5 1 1.37 0 3.85 0.68 5.5 1.5 1.65 0.83 3.45 2.4 4 3.5 0.55 1.1 1.01 2.79 1.03 3.75 0.02 0.96-0.93 2.65-2.1 3.75-1.22 1.14-3.49 1.99-5.28 1.98-1.8-0.02-5.29-1.4-8.15-3.23-2.75-1.76-5.56-3.21-6.25-3.23-0.69-0.01-1.23 0.99-1.21 2.23 0.01 1.24 0.67 3.38 1.46 4.75 0.79 1.38 1.45 4.19 1.46 6.25 0.03 2.65-0.62 4.34-2.21 5.77-1.24 1.11-2.81 2.01-3.5 2-0.69-0.01-2.37-0.58-3.75-1.27-1.37-0.69-2.94-2.26-3.5-3.5-0.55-1.24-1-4.72-1-7.75 0-5.35-0.13-5.6-4.75-9.34-2.61-2.12-5.38-5.38-6.16-7.25-0.91-2.21-1.19-4.99-0.17-12.41l-2.55 2.5c-1.4 1.38-2.96 3.29-3.46 4.25-0.63 1.21-0.17 3.67 1.5 8 1.32 3.44 3.14 9.4 4.04 13.25 0.9 3.85 1.89 11.05 2.19 16 0.39 6.3 0.09 11.25-1.03 16.5-0.87 4.13-3.14 10.65-5.05 14.5-1.91 3.85-5.43 9.25-7.83 12-2.4 2.75-7.48 7.1-11.3 9.66-3.81 2.56-9.85 5.7-13.43 6.98-5.55 1.98-8.4 2.31-19.5 2.29-11.55-0.02-13.89-0.33-21-2.78-4.4-1.52-10.41-4.2-13.36-5.95-2.94-1.76-8.96-7.02-13.36-11.7-5.58-5.91-9.02-10.63-11.32-15.5-1.82-3.85-4.35-10.37-5.63-14.5-1.95-6.29-2.33-9.68-2.33-21 0-11.53 0.29-14.07 2-17.42 1.1-2.16 2.9-4.53 4-5.28 1.72-1.17 2.3-1.11 4.21 0.42 1.74 1.41 2.44 3.56 3.34 10.28 0.63 4.68 2.05 11.43 3.16 15 1.12 3.58 3.4 9.43 5.09 13 1.94 4.14 5.26 8.72 9.13 12.6 3.54 3.56 8.78 7.49 12.57 9.42 5.3 2.71 7.98 3.41 14.5 3.79 4.44 0.25 9.56-0.03 11.5-0.63 1.92-0.61 5.7-3.03 8.39-5.39 2.68-2.36 5.8-6.09 6.92-8.29 1.56-3.04 2.04-5.91 2.04-12 0-4.76-0.73-10.43-1.79-14-0.98-3.3-3.56-9.82-5.73-14.5-2.17-4.67-4.97-9.85-6.21-11.5-1.24-1.65-5.04-5.14-8.44-7.75-3.4-2.61-6.18-4.52-6.18-4.25 0 0.28 0.63 1.51 1.41 2.75 0.77 1.24 1.89 4.73 2.47 7.75 0.59 3.03 1.94 6.63 3.01 8 1.07 1.38 2.6 4.08 3.4 6 0.8 1.93 1.18 4.31 0.84 5.31-0.35 0.99-2.09 2.34-7.12 4.19l-0.51 38-4.5-0.04c-2.92-0.03-6.87-1.17-11.25-3.25-3.71-1.77-8.78-5.23-15.75-12.21v-29l-3.96 0.75c-3.44 0.65-4.31 0.42-6.53-1.75-1.41-1.37-2.55-3.06-2.54-3.75 0.02-0.69 1.04-2.39 2.28-3.78 1.33-1.5 4.29-3.03 7.25-3.75 3.17-0.77 5-1.76 5-2.69 0-0.9-1.83-1.96-4.75-2.75-2.73-0.73-5.42-2.24-6.33-3.53-0.98-1.4-1.36-3.28-1-5 0.32-1.51 1.48-3.2 2.58-3.75 1.3-0.65 3.13-0.66 5.25-0.04 1.79 0.53 4.49 1.88 6 3 1.51 1.12 2.92 1.93 3.13 1.79 0.21-0.14-0.63-3.62-1.87-7.75-1.24-4.12-2.55-9.75-2.91-12.5-0.51-3.82-0.24-5.81 1.12-8.43 0.98-1.88 2.9-4.28 4.28-5.33 1.37-1.04 4.75-2.12 7.5-2.38 3.11-0.31 6.79 0.1 14.5 2.64l-0.75-3.25c-0.41-1.79-0.68-8.65-0.6-15.25 0.11-8.61 0.74-14.26 2.25-20 1.16-4.4 4.1-12.05 6.54-17 2.43-4.95 5.35-10.35 8.55-15l-4.12-2c-2.26-1.1-4.74-3.24-5.49-4.75-0.76-1.51-1.38-5-1.38-7.75 0-2.75 0.9-7.25 2-10 1.1-2.75 2-6.12 2-7.5 0-1.37-0.45-2.72-1-3-0.55-0.27-2.91 0.02-5.25 0.66-2.34 0.63-5.49 0.86-7 0.5-1.51-0.36-3.31-1.76-4-3.1-1.07-2.1-0.97-2.8 0.75-5 1.64-2.11 2.83-2.56 6.75-2.56 2.61 0 4.75-0.45 4.75-1 0-0.55-2.03-2.35-4.5-4-2.94-1.96-4.7-3.95-5.08-5.75-0.41-1.92-0.03-3.29 1.25-4.53 1.01-0.98 2.84-1.77 4.08-1.75 1.24 0.02 3.04 0.42 4 0.9 0.96 0.48 2.42 2.29 3.25 4.03 0.83 1.75 2.17 3.39 3 3.65 0.83 0.26 1.72 0.23 2-0.07 0.27-0.29-0.06-2.21-0.73-4.26-0.68-2.04-1.23-4.84-1.23-6.22 0.01-1.37 0.79-3.3 1.74-4.28 0.94-0.98 2.84-1.79 4.22-1.8 1.37 0 3.17 0.76 4 1.69 1.08 1.23 1.43 3.6 1.25 8.54-0.19 5.15 0.06 6.73 1 6.37 0.69-0.27 1.92-1.95 2.75-3.74 0.83-1.78 2.68-3.93 4.13-4.76 2.39-1.38 2.87-1.36 5.25 0.23q2.63 1.75 2.64 4.5c0.01 1.9-1.24 3.99-4.02 6.75-2.22 2.2-4.02 4.34-4.02 4.75 0.01 0.41 2.16 0.74 4.77 0.73 2.61-0.01 5.32 0.56 6.02 1.25 0.69 0.7 1.28 2.4 1.29 3.77 0.02 1.38-0.74 3.18-1.67 4-1.12 0.98-3.81 1.5-13.89 1.5l-0.25 4.75c-0.17 3.27 0.14 4.75 1 4.73 0.69-0.01 4.62-0.9 8.75-1.99 4.12-1.09 9.24-3.22 11.37-4.73 2.12-1.52 6.06-5.46 8.75-8.76 2.69-3.3 7.25-10.41 10.13-15.79 2.89-5.39 5.59-9.77 6-9.75 0.41 0.02 2.27-2.1 4.12-4.71 2.2-3.1 4.8-5.36 7.5-6.5 2.27-0.96 5.14-1.75 6.38-1.75 1.24-0.01 4.05-1.12 6.25-2.47 2.85-1.76 5.44-2.47 9-2.47 2.75 0 6.58-0.68 8.5-1.49 1.92-0.82 5.19-1.51 7.25-1.53zm-7.6 22.01c-0.91 1.62-1.65 4.3-1.65 5.95 0 1.65 0.45 4.13 1 5.5 0.55 1.38 2.35 3.18 4 4 1.65 0.83 3.23 1.39 3.51 1.25 0.29-0.14 0.06-1.49-0.5-3-0.55-1.51-1.01-5.34-1.02-8.5 0-3.16 0.57-6.76 1.27-8 1.08-1.91 1.04-2.24-0.24-2.22-0.84 0.02-2.24 0.49-3.12 1.05-0.88 0.56-2.35 2.35-3.25 3.97zm12.59 6.45c-0.05 2.75-0.57 6.24-1.16 7.75-0.7 1.78-0.73 2.75-0.08 2.75 0.55 0 1.9-0.45 3-1 1.1-0.55 2.67-2.35 3.5-4 0.83-1.65 1.5-4.35 1.5-6 0-1.65-0.5-4.01-1.12-5.25-0.61-1.24-2.07-3.03-3.25-3.98-1.17-0.95-2.86-1.73-3.76-1.75-1.48-0.02-1.49 0.27-0.09 3.23 0.85 1.79 1.5 5.5 1.46 8.25zm130.76-33.04c9.55 0.27 17.4 1.09 23 2.39 4.67 1.09 10.75 2.73 13.5 3.66 2.75 0.92 11.75 4.94 20 8.92 8.25 3.98 17.47 8.04 20.5 9.03 3.02 0.99 6.85 2.78 8.5 3.99 1.65 1.21 4.35 4.3 6 6.86 1.88 2.92 4.68 5.55 7.5 7.06 2.47 1.32 5.74 3.8 7.25 5.52 2.16 2.44 2.76 4.13 2.79 7.86 0.03 3.89-0.68 5.84-3.91 10.75-2.17 3.3-6.12 7.55-8.79 9.45-2.66 1.89-7.32 4.36-10.34 5.48-4.56 1.7-7.8 2.04-19 2-10.78-0.04-15.06-0.49-21.25-2.24-4.26-1.2-13.94-5.06-21.5-8.56-7.56-3.5-16-7.11-18.75-8.01-2.75-0.9-7.81-1.64-11.25-1.63-4.23 0.01-8.43 0.83-13 2.55-3.71 1.4-8.78 4.01-11.25 5.8-2.48 1.8-6.32 5.94-8.54 9.21-2.22 3.27-4.7 8.09-5.5 10.71-0.8 2.62-1.8 4.75-2.21 4.75-0.41-0.01-0.96-1.25-1.22-2.76-0.25-1.51-1.21-7.25-2.11-12.75-0.91-5.5-3.14-14.27-4.95-19.5-1.81-5.22-4.97-12.42-7.03-16-2.06-3.57-5.7-8.86-12.44-17l6.25-5.55c3.44-3.05 10.3-7.62 15.25-10.15 4.95-2.54 11.47-5.48 14.5-6.53 3.02-1.05 9.55-2.77 14.5-3.82 7.23-1.54 11.85-1.83 23.5-1.49zm57.28 42.47c-0.67 0.86-1.25 2.7-1.28 4.07-0.04 1.38 0.85 3.74 1.97 5.25 1.11 1.51 2.59 2.75 3.28 2.75 0.9 0 1.25-2.27 1.25-8 0-4.4 0-7.99 0-7.97 0 0.02-0.9 0.55-2 1.18-1.1 0.63-2.55 1.85-3.22 2.72zm11.47 12.07c0.69 0 2.17-1.24 3.28-2.75 1.12-1.51 2.04-3.65 2.04-4.75 0-1.1-1.25-3.25-2.78-4.79-1.54-1.53-3.02-2.77-3.29-2.75-0.28 0.02-0.5 3.42-0.5 7.54 0 5.33 0.36 7.5 1.25 7.5zm-279.5-54.91c29.56-0.05 53.75 0.25 53.75 0.66 0 0.41-2.14 1.94-4.75 3.39-2.61 1.45-6.78 2.96-9.25 3.36-2.48 0.39-5.85 1.52-7.5 2.5-1.65 0.99-5.64 4.88-8.87 8.65-3.23 3.77-6.72 8.54-9.63 14.35h-8.5c-8.13 0-8.54-0.11-9.5-2.5-0.55-1.37-2.46-3.42-4.25-4.55-2.39-1.51-4.24-1.91-7-1.5-3.47 0.51-3.9 0.29-5.75-2.95-1.4-2.45-3.13-3.84-5.75-4.62-3.07-0.91-4.34-0.82-7 0.5-1.79 0.89-3.92 2.97-4.75 4.62-1.34 2.67-1.96 2.99-5.75 2.86-2.34-0.08-5.15 0.31-6.25 0.86-1.1 0.56-2.79 2.65-3.75 4.65-0.96 2-1.75 4.31-1.75 5.13 0 0.83 0.56 2.62 1.25 3.99 1.09 2.19 0.98 2.78-0.93 4.75-1.2 1.25-2.64 3.39-3.19 4.76-0.64 1.61-0.67 3.84-0.07 6.25 0.61 2.42 2.01 4.46 3.94 5.75 1.75 1.17 4.67 2 7 2 3.83 0 3.98 0.12 3.47 2.75-0.3 1.51-0.87 5.68-1.29 9.25-0.52 4.5-0.35 7.58 0.54 10 0.7 1.93 2.42 4.63 6.36 8.5l-3.46 7c-1.9 3.85-4.59 10.38-5.98 14.5-1.38 4.13-2.99 10.43-3.57 14-0.58 3.58-1.06 10.55-1.07 24.5l-6.25 0.01c-4.68 0.01-7.19 0.58-10 2.25-2.06 1.23-3.98 2.24-4.25 2.24-0.28 0-0.49-30.94-0.48-68.75 0.01-51.69 0.32-69.72 1.25-72.64 0.67-2.14 2.8-5.69 4.73-7.89 1.92-2.2 4.76-4.68 6.31-5.51 1.54-0.83 4.01-1.86 5.5-2.27 1.48-0.42 26.88-0.81 56.44-0.85z"/>
	</g>
</svg>